<svg id="Layer_1" data-name="Layer 1" xmlns="http://www.w3.org/2000/svg" viewBox="0 0 492 892"><defs><style>.cls-1{fill-rule:evenodd;}.cls-2{fill:#ef9f05;}</style></defs><path class="cls-1" d="M522.29,94.63c68.84,2.18,144.85,9.64,193.88,15.86a12.31,12.31,0,0,1,10.31,9c2,7.41,4.47,15.85,7.14,25.17,10.52,36.71,25,87,36,142.08,13.79,69,22.52,146.75,11.3,216.47-14.82,92.14-45.94,144-78.76,175.46a210.31,210.31,0,0,1-46.78,33.57c-5.66,3.06-11,5.75-15.79,8.11l-3.25,1.62a145.53,145.53,0,0,0-12.92,7,22,22,0,0,0-2.25,4A100.61,100.61,0,0,0,616,747.87c-3.49,12.58-6.62,29-9,46.51s-4.06,35.56-4.65,51.42a221.93,221.93,0,0,0,.53,30.24c23.4,10,52.37,16.7,78.9,22.86,3,.7,6.06,1.4,9,2.1,15.06,3.53,29.34,7.07,39.9,11.15a56.28,56.28,0,0,1,14.56,7.77c4.08,3.25,8.79,8.71,8.79,16.61,0,14.81-8.24,25.38-20.2,32.21-11.26,6.42-26.64,10.14-44.32,12.51-35.37,4.75-85.79,4.75-146,4.75h-1c-61.33,0-109.59-3.72-142.84-10.45-16.52-3.34-30.16-7.58-40-13-9.25-5.09-18.83-13.39-18.83-26,0-8.12,5.47-13.25,9-15.81a58.72,58.72,0,0,1,13.6-6.84c9.87-3.73,23.31-7.24,37.53-10.9l2.67-.69c26.62-6.84,56.85-14.61,81-26,2.18-17.51,0-42.8-5-70.12a525.23,525.23,0,0,0-20.53-77.65c-44.1-17.09-81.84-54.09-109.63-95.08-29-42.76-48.37-91.63-52.86-130.83-14.25-124.4,31.69-275.73,64.25-383l.14-.47a12.45,12.45,0,0,1,4.38-6.28c6.91-5.21,16.32-8.67,26.45-11.15A248.92,248.92,0,0,1,428,96.18C455,93.76,487.9,93.54,522.29,94.63Zm-139,36.14C350.4,239,307.71,382.93,321.1,499.78c3.93,34.33,21.44,79.45,48.74,119.72s63.3,74,102.87,87.66a12.33,12.33,0,0,1,7.51,7.33c8.89,23.62,17.89,55.8,23.66,87.19,5.67,31,8.56,63,3.93,85.41a12.34,12.34,0,0,1-6.42,8.5c-27.51,14.2-62.76,23.25-90.63,30.41l-3.69,1c-14.62,3.76-26.62,6.93-35,10.09-1.6.6-2.95,1.16-4.06,1.67a32.47,32.47,0,0,0,3.45,2.16c6.63,3.64,17.45,7.28,33,10.43,30.93,6.26,77.34,10,138,10,61.36,0,110.16,0,143.7-4.53,16.87-2.27,28.41-5.51,35.45-9.52,5-2.87,7-5.57,7.53-8.44a39.21,39.21,0,0,0-7.37-3.54c-8.71-3.37-21.3-6.55-36.66-10.15-3-.7-6-1.4-9.14-2.13-28.32-6.55-62.7-14.52-89.55-27.17a12.38,12.38,0,0,1-6.82-8.67c-2.17-10.43-2.56-25.79-1.94-42.26.63-16.77,2.37-35.74,4.87-53.89s5.83-35.73,9.71-49.75a125.61,125.61,0,0,1,6.54-18.65c2.16-4.68,5.47-10.61,10.72-14.06a161.53,161.53,0,0,1,15.79-8.72l3.44-1.72c4.72-2.35,9.66-4.81,14.91-7.65a186.54,186.54,0,0,0,41.46-29.68c28.17-27,57.3-73.55,71.46-161.52,10.51-65.39,2.44-139.73-11.13-207.65-10.79-53.93-24.83-102.95-35.36-139.65-1.81-6.35-3.53-12.33-5.1-17.9-48.53-5.93-119.31-12.64-183.49-14.67-34-1.08-65.75-.83-91.32,1.46a225.68,225.68,0,0,0-32.49,4.93A66.57,66.57,0,0,0,383.24,130.77ZM730.38,939.71l0,0Zm-365-3.7s0,0,0,.06Zm-1.47,5a1.06,1.06,0,0,1-.12.12Z" transform="translate(-294 -94)"/><path class="cls-2" d="M338.47,488.5c-8.63-81.27,6.16-157.91,32-244,34.89-29.88,249.92-12.45,336.4,0,19.72,44.07,47.93,156.55,30.81,244C706.9,645.79,630.5,672.84,602.16,694H483.87C407.56,664.12,346.18,561.15,338.47,488.5Z" transform="translate(-294 -94)"/><path d="M452.65,701C381,542.1,455.94,400.44,511.84,360.87c-71-49.47-60-94.41-39.46-127.39,0,0,32.82-86,39.46-59.36,9.86,39.58,21,40.81,21,40.81,22.71-15.33,45.94-15.67,75.23,0,0,0,24.66-37.23,38.22-37.23s-2.33,10,16,64.44c41.44,51.45-12.33,91.52-46.86,123.68,75.36,94.11,46.86,327.73,9.74,353.58-29.82,20.76-76.33,29.81-97.29,24.86C550.07,898.85,556.23,905,434.15,937.2,345.36,960,756,949.56,701.74,929.77s75.23-3.71,14.8,33.4C600.63,970.59,444,981,375,963.17s40.69-61.84,109.62-73.1C510.61,885.82,522.94,856.81,452.65,701Z" transform="translate(-294 -94)"/></svg>